<svg width="116" height="38" viewBox="0 0 116 38" fill="none" xmlns="http://www.w3.org/2000/svg">
<g id="Group 26">
<path id="Vector" d="M2.87267 36.6174C2.79603 36.4454 2.85241 36.2477 3.00589 36.132C34.4096 13.6446 75.6374 1.63624 114.071 8.58391C114.284 8.62467 114.441 8.80353 114.452 9.01432C114.443 9.09855 114.411 9.17194 114.363 9.22113C114.314 9.27033 114.252 9.29204 114.187 9.28233C75.7179 8.2331 35.5847 14.7915 3.25049 36.7234C3.19412 36.769 3.12484 36.7833 3.05541 36.7638C2.98598 36.7443 2.92108 36.6923 2.87267 36.6174Z" fill="#0EA5E9"/>
<path id="Vector_2" d="M28.6809 29.8075C46.9477 19.3347 77.0565 13.1813 97.9878 15.9023C98.3708 15.9513 98.328 16.5125 97.9404 16.5092C77.0647 16.3216 48.1364 22.2124 28.9543 30.3522C28.5967 30.5038 28.3447 29.9998 28.6809 29.8075Z" fill="#0EA5E9"/>
<path id="Vector_3" d="M101.91 15.7953C103.277 15.5667 104.691 15.6613 106.092 16.0751C106.756 16.2787 106.688 17.2259 105.998 17.3373C104.63 17.5698 103.213 17.4756 101.809 17.059C101.152 16.8539 101.223 15.9062 101.91 15.7953Z" fill="#0EA5E9"/>
</g>
</svg>
