<svg width="28" height="26" viewBox="0 0 28 26" fill="none" xmlns="http://www.w3.org/2000/svg">
<g id="&#240;&#159;&#166;&#134; emoji &#34;white medium star&#34;">
<path id="Vector" d="M14.6644 0.569875L17.7189 7.53659C17.9526 8.06987 18.4587 8.43522 19.0396 8.48742L26.4806 9.15459C27.3225 9.27713 27.6584 10.3097 27.0479 10.9042L21.4428 15.613C20.9889 15.9942 20.7824 16.5933 20.9072 17.172L22.5366 24.7991C22.6795 25.6364 21.8013 26.2764 21.0479 25.8792L14.5532 22.0759C14.054 21.7832 13.4367 21.7832 12.9375 22.0759L6.4428 25.877C5.69166 26.2718 4.81118 25.6342 4.95414 24.7968L6.58349 17.1697C6.70603 16.591 6.5018 15.992 6.04794 15.6107L0.440531 10.9065C-0.167638 10.3142 0.168216 9.2794 1.00785 9.15686L8.44885 8.48969C9.02978 8.43749 9.53584 8.07214 9.76957 7.53886L12.824 0.572144C13.203 -0.190336 14.2877 -0.190336 14.6644 0.569875Z" fill="#FDD835"/>
<path id="Vector_2" d="M14.442 7.95415L13.9246 2.82102C13.9042 2.53509 13.8452 2.04492 14.3036 2.04492C14.6667 2.04492 14.8641 2.80059 14.8641 2.80059L16.4163 6.92162C17.0018 8.4897 16.7613 9.02752 16.1962 9.34522C15.5472 9.70831 14.5895 9.42464 14.442 7.95415Z" fill="#FFFF8D"/>
<path id="Vector_3" d="M20.8437 15.157L25.296 11.6827C25.5161 11.4989 25.9133 11.2062 25.5956 10.8726C25.3437 10.6093 24.6629 10.9883 24.6629 10.9883L20.7665 12.511C19.6046 12.9127 18.8331 13.5072 18.765 14.2561C18.6765 15.2546 19.5729 16.0239 20.8437 15.157Z" fill="#F4B400"/>
</g>
</svg>
